<?xml version="1.0" encoding="UTF-8" standalone="no"?>
<svg
   width="256"
   height="256"
   viewBox="0 0 256 256"
   version="1.1"
   id="svg7"
   xml:space="preserve"
   xmlns="http://www.w3.org/2000/svg"
   xmlns:svg="http://www.w3.org/2000/svg"><defs
     id="defs7" /><g
     fill="none"
     id="g7"><rect
       width="256"
       height="256"
       fill="#f4f2ed"
       rx="60"
       id="rect1"
       x="0"
       y="0" /></g><g
     id="g8"
     transform="matrix(1.7640124,0,0,1.9384052,12.644225,7.1134024)"><path
       fill="#850000"
       d="M 8.983,78.08 C 8.046,78.326 6.707,79.099 6.075,79.767 L 5.453,80.395 5.28,78.183 H 2.987 L 2.935,86.2 2.896,94.233 h 2.61 L 5.58,89.009 c 0.086,-5.895 0.19,-6.455 1.305,-7.594 0.81,-0.825 2.08,-1.284 3.19,-1.158 0.936,0.103 1.588,0.524 2.082,1.365 0.332,0.564 0.35,0.967 0.407,6.598 l 0.052,6.013 h 2.61 l 0.051,-5.575 c 0.052,-5.349 0.07,-5.596 0.442,-6.299 1.357,-2.506 4.939,-2.89 6.117,-0.664 0.355,0.664 0.373,1.033 0.425,6.611 l 0.069,5.927 h 2.454 l -0.056,-6.541 -0.052,-6.526 -0.495,-0.927 c -1.092,-2.072 -4.11,-2.878 -6.61,-1.79 -0.408,0.178 -1.184,0.755 -1.73,1.261 -0.914,0.863 -1.005,0.916 -1.196,0.6 -0.46,-0.79 -1.219,-1.492 -1.978,-1.86 -0.901,-0.405 -2.804,-0.612 -3.684,-0.37 m 0,0"
       id="path1" /><path
       fill="#850000"
       d="m 30.953,78.097 c -2.133,0.455 -4.196,1.98 -5.007,3.736 -1.253,2.65 -1.201,6.456 0.122,9.03 1.343,2.632 4.816,4.14 7.971,3.49 4.306,-0.91 6.313,-3.91 6.013,-8.977 C 40,84.499 39.84,83.395 39.684,82.887 c -0.598,-1.912 -2.327,-3.702 -4.27,-4.422 -1.145,-0.437 -3.296,-0.61 -4.461,-0.368 m 3.616,2.528 c 1.886,0.875 2.804,2.683 2.788,5.54 -0.018,2.896 -0.864,4.699 -2.628,5.596 -1.183,0.61 -3.156,0.628 -4.253,0.07 -0.755,-0.404 -1.656,-1.318 -2.081,-2.125 -0.794,-1.526 -0.828,-5.085 -0.069,-6.714 0.846,-1.842 2.242,-2.754 4.196,-2.771 0.85,-0.017 1.379,0.086 2.047,0.404 m 11.887,-2.476 c -1.254,0.368 -2.012,0.789 -2.736,1.526 -0.386,0.386 -0.759,0.702 -0.828,0.702 -0.07,0 -0.139,-0.507 -0.139,-1.14 V 78.08 l -1.096,0.05 -1.11,0.053 -0.052,8.016 -0.036,8.033 h 2.645 v -5.05 c 0.018,-5.332 0.104,-6.208 0.81,-7.261 0.495,-0.773 1.817,-1.51 2.983,-1.665 1.674,-0.23 3.386,0.737 3.773,2.137 0.125,0.442 0.194,2.735 0.194,6.264 v 5.575 h 2.662 l -0.052,-6.277 -0.052,-6.26 -0.46,-0.984 c -0.529,-1.105 -1.321,-1.825 -2.574,-2.315 -1.093,-0.422 -2.91,-0.543 -3.932,-0.247 m 12.87,-0.07 c -2.661,0.581 -4.547,2.598 -5.288,5.632 -0.334,1.348 -0.282,3.91 0.086,5.172 1.08,3.72 3.477,5.562 6.95,5.315 1.34,-0.105 2.505,-0.56 3.402,-1.35 0.6,-0.527 0.655,-0.545 0.76,-0.211 0.177,0.577 -0.105,2.839 -0.443,3.611 -0.667,1.51 -1.99,2.193 -4.214,2.193 -1.99,-0.016 -3.334,-0.754 -3.65,-2.033 -0.087,-0.333 -0.264,-0.42 -0.915,-0.51 a 13,13 0 0 1 -1.218,-0.192 c -0.369,-0.07 -0.408,-0.017 -0.408,0.668 0.018,1.682 1.288,3.156 3.334,3.858 0.903,0.317 1.553,0.403 2.927,0.403 3.177,0 5.362,-1.123 6.42,-3.281 0.793,-1.596 0.919,-3.455 0.862,-11.978 l -0.052,-7.192 h -2.293 l -0.052,0.915 c -0.034,0.507 -0.104,0.927 -0.155,0.927 -0.057,0 -0.373,-0.244 -0.725,-0.542 -1.34,-1.174 -3.632,-1.773 -5.327,-1.404 z m 3.477,2.562 c 0.495,0.264 1.127,0.737 1.392,1.088 1.976,2.576 1.603,7.89 -0.688,9.537 -2.239,1.617 -5.36,0.737 -6.47,-1.803 -0.567,-1.3 -0.706,-4.244 -0.264,-5.839 0.333,-1.284 1.283,-2.51 2.363,-3.07 0.949,-0.51 2.536,-0.477 3.667,0.087 m 11.072,-2.475 c -1.461,0.421 -1.903,0.633 -2.874,1.37 -1.887,1.405 -2.766,3.559 -2.749,6.714 0,2.299 0.352,3.686 1.305,5.16 1.27,1.946 3.438,3.035 6.082,3.053 3.052,0.016 5.467,-1.337 6.685,-3.738 l 0.616,-1.227 0.546,1.122 c 1.994,4.193 8.237,5.208 11.783,1.947 0.563,-0.51 1.18,-1.226 1.357,-1.56 0.195,-0.351 0.385,-0.633 0.437,-0.633 0.057,0 0.248,0.369 0.425,0.841 0.885,2.107 3.07,3.264 6.19,3.246 1.817,0 3.157,-0.332 4.375,-1.105 0.724,-0.455 1.886,-1.756 1.886,-2.124 0,-0.069 0.087,-0.35 0.195,-0.61 l 0.173,-0.495 0.511,0.88 c 2.208,3.858 8.363,4.716 11.71,1.647 0.866,-0.806 2.046,-2.891 1.765,-3.156 -0.088,-0.086 -0.686,-0.23 -1.34,-0.3 l -1.161,-0.155 -0.287,0.594 c -0.793,1.647 -1.92,2.475 -3.629,2.614 -2.7,0.247 -4.729,-1.422 -5.258,-4.278 -0.087,-0.508 -0.122,-0.967 -0.07,-1.02 0.052,-0.051 2.788,-0.086 6.065,-0.086 h 5.96 v -0.945 c 0,-1.214 -0.229,-2.406 -0.718,-3.703 -0.569,-1.509 -2.293,-3.19 -3.862,-3.77 -1.696,-0.633 -4.041,-0.594 -5.715,0.086 -2.804,1.14 -4.5,3.984 -4.517,7.508 v 1.21 l -0.702,-0.616 c -0.76,-0.629 -2.275,-1.244 -4.673,-1.873 -2.684,-0.702 -3.582,-1.054 -4.058,-1.6 -0.511,-0.61 -0.546,-1.013 -0.177,-1.716 0.407,-0.807 1.533,-1.244 3.211,-1.244 1.92,0 2.784,0.437 3.404,1.7 0.35,0.718 0.51,0.892 0.793,0.84 a 21,21 0 0 1 1.196,-0.173 c 0.989,-0.122 1.063,-0.386 0.408,-1.773 -0.863,-1.843 -2.857,-2.788 -5.835,-2.77 -1.396,0.016 -1.977,0.086 -2.804,0.42 -1.8,0.685 -2.823,1.895 -3.088,3.667 l -0.125,0.807 -0.546,-1.054 c -2.75,-5.263 -10.934,-5.154 -13.383,0.174 l -0.442,0.966 -0.616,-1.226 q -1.166,-2.316 -3.65,-3.265 c -1.465,-0.56 -3.511,-0.702 -4.799,-0.35 m 3.932,2.493 c 1.816,0.893 2.718,2.719 2.718,5.505 -0.018,3.858 -1.799,6.139 -4.799,6.139 -1.834,0 -3.368,-1.019 -4.196,-2.752 -0.438,-0.946 -0.477,-1.176 -0.477,-3.386 0,-2.58 0.195,-3.313 1.218,-4.51 1.218,-1.434 3.72,-1.89 5.536,-0.996 m 14.037,-0.195 c 0.85,0.35 1.994,1.405 2.401,2.194 0.777,1.508 0.898,4.664 0.266,6.506 -0.355,1.036 -1.323,2.176 -2.26,2.632 -1.587,0.807 -3.88,0.541 -5.184,-0.6 -2.15,-1.875 -2.415,-7.134 -0.46,-9.397 1.218,-1.44 3.563,-2.016 5.238,-1.335 z m 27.298,0.073 c 1.397,0.595 2.436,2.016 2.489,3.4 l 0.034,0.736 h -8.99 l 0.052,-0.525 c 0.12,-1.474 1.143,-2.856 2.592,-3.576 0.95,-0.477 2.766,-0.495 3.823,-0.034 z m -20.383,4.96 c 0.706,0.65 1.695,1.036 4.833,1.876 1.496,0.404 2.927,0.881 3.174,1.055 1.517,1.087 0.724,3.19 -1.414,3.702 -1.27,0.294 -2.996,0.139 -4.018,-0.386 -0.707,-0.351 -0.92,-0.599 -1.358,-1.526 l -0.528,-1.088 -2.08,0.208 0.121,-0.824 c 0.051,-0.455 0.108,-1.665 0.108,-2.683 v -1.86 l 0.333,0.529 c 0.174,0.282 0.547,0.737 0.829,0.997 M 69.77,25.244 c -1.609,0.065 -4.318,0.495 -4.318,0.677 0,0.077 1.912,1.032 2.055,1.032 0.139,0 2.359,1.11 2.848,1.417 0.646,0.41 1.105,0.785 0.971,0.785 -0.086,0 -2.367,-0.88 -3.23,-1.254 -0.702,-0.299 -3.624,-1.166 -5.05,-1.504 -0.767,-0.178 -1.092,-0.247 -2.402,-0.485 -1.933,-0.355 -4.2,-0.373 -5.193,-0.048 -1.413,0.46 -1.73,1.023 -1.73,3.108 0,1.145 0.056,1.634 0.308,2.666 0.104,0.45 0.412,1.435 0.56,1.77 0.038,0.103 0.172,0.428 0.286,0.719 0.116,0.286 0.463,1.023 0.77,1.625 1.721,3.412 4.297,6.26 7.93,8.765 1.143,0.785 4.262,2.277 5.51,2.633 0.317,0.086 0.424,0.268 0.165,0.268 -0.291,0 -2.922,-0.729 -3.464,-0.958 a 10,10 0 0 0 -0.625,-0.247 c -1.872,-0.759 -4.266,-2.315 -6.247,-4.084 a 20.5,20.5 0 0 1 -5.09,-6.954 c -0.757,-1.711 -1.273,-3.71 -1.399,-5.449 -0.077,-0.992 -0.155,-1.235 -0.416,-1.222 -0.086,0 -0.902,-0.03 -1.809,-0.077 -2.448,-0.105 -5.804,0.164 -9.12,0.737 -6.347,1.078 -13.192,3.575 -20.24,7.382 a 89,89 0 0 0 -3.474,1.976 c -0.133,0.078 -0.555,0.333 -0.94,0.577 -0.385,0.238 -0.837,0.508 -1.001,0.61 -0.364,0.21 -4.392,2.945 -4.872,3.308 -0.183,0.135 -0.686,0.508 -1.107,0.811 -1.912,1.419 -6.077,4.812 -6.315,5.155 -0.118,0.173 0.064,0.26 0.316,0.173 0.125,-0.047 0.45,-0.112 0.71,-0.152 0.27,-0.038 0.963,-0.22 1.54,-0.41 a 48,48 0 0 1 1.396,-0.422 c 1.421,-0.333 1.997,-0.45 2.835,-0.572 0.373,-0.052 0.932,-0.134 1.249,-0.182 3.906,-0.577 5.77,-0.72 7.507,-0.585 3.781,0.308 7.396,0.945 9.465,1.682 1.547,0.555 4.698,2.258 6.086,3.282 0.798,0.602 3.373,3.165 3.94,3.94 0.443,0.612 0.932,1.145 1.05,1.145 0.034,0 0.086,-1.951 0.095,-4.33 l 0.026,-4.323 5.059,-0.03 c 3.98,-0.018 5.085,0.013 5.155,0.1 0.095,0.122 0.325,0.532 1.083,1.937 0.725,1.349 1.08,1.998 1.3,2.393 0.114,0.209 0.382,0.707 0.608,1.096 0.207,0.395 0.602,1.12 0.87,1.617 0.27,0.5 0.491,0.92 0.491,0.937 0,0.087 0.394,0.603 0.464,0.603 0.04,0 0.133,-0.144 0.2,-0.303 0.078,-0.175 0.28,-0.555 0.442,-0.842 0.173,-0.29 0.48,-0.854 0.693,-1.244 0.212,-0.395 0.503,-0.936 0.655,-1.196 0.424,-0.755 0.866,-1.578 1.23,-2.246 0.183,-0.346 0.474,-0.88 0.642,-1.197 0.173,-0.316 0.425,-0.762 0.56,-1.005 a 5,5 0 0 1 0.33,-0.55 c 0.073,-0.087 1.209,-0.118 5.305,-0.1 l 5.203,0.03 0.025,8.445 c 0.023,6.654 0.048,8.431 0.148,8.431 0.055,-0.009 0.442,-0.23 0.837,-0.507 0.555,-0.39 0.797,-0.628 1.053,-1.07 0.59,-1.002 2.25,-2.58 3.368,-3.192 a 15.9,15.9 0 0 1 4.326,-1.624 c 1.54,-0.325 1.99,-0.373 5.48,-0.5 6.373,-0.22 7.318,-0.26 7.366,-0.307 0.025,-0.027 -0.061,-0.278 -0.182,-0.564 -0.134,-0.277 -0.368,-0.793 -0.53,-1.135 -0.606,-1.314 -0.606,-1.751 0.027,-2.394 0.433,-0.446 1.547,-0.84 3.463,-1.222 0.317,-0.07 0.711,-0.152 0.877,-0.213 0.16,-0.047 0.364,-0.082 0.45,-0.082 0.239,0 2.154,-0.473 2.558,-0.624 0.278,-0.113 1.777,-0.438 3.567,-0.784 0.777,-0.152 2.797,-0.555 4.47,-0.89 1.058,-0.208 2.163,-0.429 2.45,-0.485 0.29,-0.06 0.702,-0.143 0.914,-0.182 0.212,-0.048 0.49,-0.104 0.625,-0.126 0.133,-0.03 0.81,-0.16 1.49,-0.303 a 34,34 0 0 1 1.548,-0.3 c 0.481,-0.047 4.106,-0.918 4.942,-1.183 1.327,-0.432 1.72,-0.602 2.558,-1.166 0.906,-0.616 1.153,-0.95 2.046,-2.727 0.993,-1.98 1.136,-2.315 1.414,-3.147 0.432,-1.326 0.407,-1.833 -0.145,-2.388 -0.38,-0.382 -1.208,-0.777 -1.815,-0.864 -0.45,-0.055 -0.507,-0.039 -0.733,0.204 -0.134,0.144 -0.247,0.312 -0.247,0.373 0,0.082 -0.156,0.508 -0.585,1.54 -0.039,0.103 -0.125,0.364 -0.195,0.571 a 6,6 0 0 1 -0.239,0.668 c -0.125,0.269 -0.133,0.221 -0.087,-0.525 0.048,-0.737 0.175,-1.357 0.452,-2.292 0.048,-0.182 0.117,-0.491 0.142,-0.682 l 0.048,-0.342 -0.997,-0.403 a 130,130 0 0 1 -2.452,-1.032 68,68 0 0 0 -0.964,-0.373 16,16 0 0 1 -0.987,-0.395 32,32 0 0 0 -1.01,-0.42 c -0.647,-0.247 -2.897,-1.009 -4.809,-1.613 -0.52,-0.164 -3.546,-1.07 -3.845,-1.157 a 38,38 0 0 1 -1.343,-0.373 c -0.157,-0.039 -0.53,-0.142 -0.82,-0.221 -1.69,-0.468 -2.133,-0.585 -2.74,-0.755 a 18,18 0 0 0 -1.01,-0.268 c -0.182,-0.048 -0.68,-0.164 -1.106,-0.269 a 589,589 0 0 0 -5.526,-1.278 106,106 0 0 0 -1.206,-0.278 22,22 0 0 0 -0.863,-0.173 41,41 0 0 1 -1.2,-0.238 84,84 0 0 0 -1.878,-0.348 193,193 0 0 0 -1.682,-0.294 c -2.652,-0.477 -2.836,-0.507 -7.595,-1.032 -2.935,-0.333 -6.876,-0.61 -7.838,-0.564 a 75,75 0 0 0 -1.88,0.087 m -11.115,4.712 c 2.535,0.825 5.007,1.942 6.702,3.03 1.343,0.872 3.017,2.26 3.468,2.88 l 0.195,0.26 -0.369,-0.144 c -0.2,-0.086 -0.624,-0.268 -0.94,-0.42 -1.69,-0.785 -1.873,-0.855 -1.873,-0.68 0,0.047 0.394,0.68 0.862,1.386 0.482,0.715 0.867,1.349 0.867,1.404 0,0.048 -0.182,-0.03 -0.403,-0.182 -0.866,-0.593 -2.896,-1.442 -3.013,-1.27 -0.025,0.048 0.6,0.842 1.396,1.77 0.788,0.927 1.443,1.72 1.443,1.776 0,0.145 -0.155,0.126 -0.883,-0.143 -0.75,-0.268 -0.946,-0.294 -0.946,-0.116 0,0.125 1.626,2.315 2.272,3.074 0.182,0.207 0.325,0.407 0.325,0.455 0,0.23 -2.25,-1.232 -3.845,-2.494 -2.28,-1.815 -4.483,-4.257 -5.645,-6.272 -0.949,-1.647 -1.278,-2.536 -1.278,-3.512 0,-0.572 0.03,-0.689 0.243,-0.888 0.122,-0.135 0.277,-0.24 0.333,-0.24 0.06,0 0.538,0.145 1.089,0.326 m 30.354,3.405 c 0.924,0.164 2.18,0.38 2.787,0.49 0.607,0.104 1.344,0.229 1.635,0.277 0.286,0.055 0.702,0.134 0.914,0.182 0.209,0.047 0.625,0.13 0.91,0.2 0.955,0.207 1.185,0.255 2.742,0.62 1.672,0.394 2.036,0.467 2.548,0.576 0.432,0.082 0.866,0.247 0.866,0.325 0,0.025 -0.32,0.209 -0.701,0.407 -0.79,0.395 -0.954,0.422 -4.202,0.546 -2.215,0.096 -3.393,0.07 -4.472,-0.103 -2.173,-0.334 -3.296,-0.946 -4.172,-2.267 -0.307,-0.452 -0.51,-0.582 -1.213,-0.764 -0.26,-0.078 -0.655,-0.182 -0.863,-0.25 -0.212,-0.066 -0.577,-0.17 -0.81,-0.24 -0.69,-0.181 -0.296,-0.286 1.096,-0.286 0.962,0 1.635,0.066 2.935,0.287 m 11.564,13.36 a 0.6,0.6 0 0 1 -0.241,0 c -0.066,-0.032 -0.018,-0.048 0.116,-0.048 0.134,0 0.182,0.016 0.125,0.047 m -0.416,0.112 c 0,0.047 -0.112,0.117 -0.26,0.144 a 58,58 0 0 0 -1.855,0.537 c -0.133,0.048 -0.564,0.182 -0.958,0.294 -0.993,0.286 -3.395,1.071 -4.04,1.318 -1.209,0.46 -4.058,1.973 -4.46,2.371 -0.594,0.586 -0.78,1.219 -0.694,2.424 0.03,0.502 0.1,1.144 0.155,1.421 0.113,0.603 0.048,0.768 -0.182,0.469 -0.233,-0.294 -0.724,-1.365 -0.867,-1.89 -0.077,-0.243 -0.164,-0.555 -0.212,-0.71 -0.174,-0.543 -0.104,-1.185 0.165,-1.579 0.364,-0.555 1.673,-1.443 3.212,-2.18 0.728,-0.352 2.853,-1.08 4.808,-1.653 0.394,-0.116 0.824,-0.25 0.958,-0.285 1.387,-0.468 4.23,-0.919 4.23,-0.681 m -30.41,0.642 c -0.026,0.026 -0.113,0.039 -0.182,0.008 -0.078,-0.03 -0.048,-0.056 0.055,-0.056 0.11,-0.009 0.167,0.017 0.127,0.047 z m 0,0"
       id="path2" /><path
       fill="#850000"
       d="m 49.585,65.968 v 6.692 h 4.79 c 3.595,0 4.817,-0.03 4.903,-0.117 0.144,-0.143 0.174,-13.27 0.031,-13.27 -0.047,0 -0.117,0.075 -0.147,0.161 -0.035,0.087 -1.085,1.72 -2.336,3.633 -1.978,3.022 -2.529,3.758 -2.529,3.386 0,-0.066 -3.277,-5.18 -4.114,-6.416 a 3.5,3.5 0 0 1 -0.3,-0.507 c -0.077,-0.145 -0.172,-0.256 -0.22,-0.256 -0.039,0 -0.078,3.012 -0.078,6.693 z m 0,0"
       id="path3" /></g></svg>
