<svg xmlns="http://www.w3.org/2000/svg" xmlns:xlink="http://www.w3.org/1999/xlink" width="500" zoomAndPan="magnify" viewBox="0 0 375 374.999991" height="500" preserveAspectRatio="xMidYMid meet" version="1.0"><defs><clipPath id="3e4de67cd4"><path d="M 101.390625 180.308594 L 101.441406 180.308594 L 101.441406 180.34375 L 101.390625 180.34375 Z M 101.390625 180.308594 " clip-rule="nonzero"/></clipPath><clipPath id="6e2089c606"><path d="M 101.4375 180.332031 C 101.347656 180.371094 101.429688 180.308594 101.429688 180.308594 " clip-rule="nonzero"/></clipPath><clipPath id="573c67371e"><path d="M 104.785156 182.816406 L 104.835938 182.816406 L 104.835938 182.855469 L 104.785156 182.855469 Z M 104.785156 182.816406 " clip-rule="nonzero"/></clipPath><clipPath id="aadb70224e"><path d="M 104.832031 182.839844 C 104.738281 182.878906 104.820312 182.820312 104.820312 182.820312 " clip-rule="nonzero"/></clipPath><clipPath id="98adc871ce"><path d="M 109.871094 186.714844 L 112.074219 186.714844 L 112.074219 188.578125 L 109.871094 188.578125 Z M 109.871094 186.714844 " clip-rule="nonzero"/></clipPath><clipPath id="714e96f12c"><path d="M 112.050781 187.425781 C 111.074219 188.925781 110.175781 188.625 109.949219 188.324219 C 109.800781 188.023438 109.949219 187.050781 110.25 186.824219 C 110.550781 186.601562 111.75 186.898438 111.75 186.898438 " clip-rule="nonzero"/></clipPath></defs><g clip-path="url(#3e4de67cd4)"><g clip-path="url(#6e2089c606)"><path fill="#f6b062" d="M 100.933594 179.898438 L 101.859375 179.898438 L 101.859375 180.792969 L 100.933594 180.792969 Z M 100.933594 179.898438 " fill-opacity="1" fill-rule="nonzero"/></g></g><g clip-path="url(#573c67371e)"><g clip-path="url(#aadb70224e)"><path fill="#f6b062" d="M 104.328125 182.40625 L 105.253906 182.40625 L 105.253906 183.300781 L 104.328125 183.300781 Z M 104.328125 182.40625 " fill-opacity="1" fill-rule="nonzero"/></g></g><g clip-path="url(#98adc871ce)"><g clip-path="url(#714e96f12c)"><path fill="#f6b062" d="M 106.949219 183.824219 L 115.054688 183.824219 L 115.054688 191.773438 L 106.949219 191.773438 Z M 106.949219 183.824219 " fill-opacity="1" fill-rule="nonzero"/></g></g><path fill="#ff914d" d="M 374.96875 187.484375 C 234.355469 213.371094 213.371094 234.355469 187.484375 374.96875 C 161.597656 234.355469 140.613281 213.371094 0 187.484375 C 140.613281 161.597656 161.597656 140.613281 187.484375 0 C 213.371094 140.613281 234.355469 161.597656 374.96875 187.484375 Z M 374.96875 187.484375 " fill-opacity="1" fill-rule="nonzero"/></svg>