<svg xmlns="http://www.w3.org/2000/svg" xmlns:xlink="http://www.w3.org/1999/xlink" width="1728" zoomAndPan="magnify" viewBox="0 0 1296 1007.999987" height="1344" preserveAspectRatio="xMidYMid meet" version="1.0"><defs><clipPath id="47c4c4d7cd"><path d="M 46 166.78125 L 401 166.78125 L 401 619 L 46 619 Z M 46 166.78125 " clip-rule="nonzero"/></clipPath><clipPath id="636ee75f3b"><path d="M 850 166.78125 L 1205 166.78125 L 1205 619 L 850 619 Z M 850 166.78125 " clip-rule="nonzero"/></clipPath><clipPath id="c0db195c06"><path d="M 41.765625 689 L 163 689 L 163 838 L 41.765625 838 Z M 41.765625 689 " clip-rule="nonzero"/></clipPath><clipPath id="9ccd12da2b"><path d="M 186 685 L 327.386719 685 L 327.386719 841.03125 L 186 841.03125 Z M 186 685 " clip-rule="nonzero"/></clipPath><clipPath id="2223dadfdb"><path d="M 632 685 L 773 685 L 773 841.03125 L 632 841.03125 Z M 632 685 " clip-rule="nonzero"/></clipPath><clipPath id="71e4e4cd61"><path d="M 795 689 L 917 689 L 917 841.03125 L 795 841.03125 Z M 795 689 " clip-rule="nonzero"/></clipPath><clipPath id="39cf6bc519"><path d="M 77 231.742188 L 334.339844 231.742188 L 334.339844 271.515625 L 77 271.515625 Z M 432.035156 357.34375 L 433 357.34375 L 433 399.234375 L 432.035156 399.234375 Z M 225.484375 558.839844 L 433 558.839844 L 433 589.199219 L 225.484375 589.199219 Z M 225.484375 558.839844 " clip-rule="nonzero"/></clipPath><clipPath id="1ac9f029ea"><path d="M 663.507812 271.515625 L 831 271.515625 L 831 307.109375 L 663.507812 307.109375 Z M 480 357.34375 L 831 357.34375 L 831 399.234375 L 480 399.234375 Z M 480 357.34375 " clip-rule="nonzero"/></clipPath><clipPath id="120a21cff4"><path d="M 928.878906 231.742188 L 1117.289062 231.742188 L 1117.289062 271.515625 L 928.878906 271.515625 Z M 1059.21875 399.234375 L 1224.054688 399.234375 L 1224.054688 422.246094 L 1059.21875 422.246094 Z M 887.421875 570.871094 L 1237 570.871094 L 1237 607.515625 L 887.421875 607.515625 Z M 887.421875 570.871094 " clip-rule="nonzero"/></clipPath><clipPath id="58dfdbcc29"><path d="M 149.070312 725.792969 L 194 725.792969 L 194 751.988281 L 149.070312 751.988281 Z M 149.070312 725.792969 " clip-rule="nonzero"/></clipPath><clipPath id="9fa63e931e"><path d="M 217 725.792969 L 288.285156 725.792969 L 288.285156 751.988281 L 217 751.988281 Z M 217 725.792969 " clip-rule="nonzero"/></clipPath><clipPath id="435c75dae6"><path d="M 390.867188 801.15625 L 485.492188 801.15625 L 485.492188 822.09375 L 390.867188 822.09375 Z M 390.867188 801.15625 " clip-rule="nonzero"/></clipPath><clipPath id="1acfb33bbf"><path d="M 558 801.15625 L 628.464844 801.15625 L 628.464844 822.09375 L 558 822.09375 Z M 558 801.15625 " clip-rule="nonzero"/></clipPath><clipPath id="3abc324b2b"><path d="M 738.378906 751.988281 L 805 751.988281 L 805 773.9375 L 738.378906 773.9375 Z M 738.378906 751.988281 " clip-rule="nonzero"/></clipPath><clipPath id="0a1cf79d32"><path d="M 826 751.988281 L 948.507812 751.988281 L 948.507812 773.9375 L 826 773.9375 Z M 826 751.988281 " clip-rule="nonzero"/></clipPath><clipPath id="fed49529ce"><path d="M 1028.320312 826.273438 L 1099 826.273438 L 1099 838 L 1028.320312 838 Z M 1028.320312 826.273438 " clip-rule="nonzero"/></clipPath><clipPath id="0bb92e4f29"><path d="M 1191.832031 740.445312 L 1254.515625 740.445312 L 1254.515625 763.535156 L 1191.832031 763.535156 Z M 1129.199219 826.273438 L 1248.121094 826.273438 L 1248.121094 838 L 1129.199219 838 Z M 1129.199219 826.273438 " clip-rule="nonzero"/></clipPath><clipPath id="80f7de7c9a"><path d="M 295.699219 516.273438 L 304.5 516.273438 L 304.5 525.308594 L 295.699219 525.308594 Z M 295.699219 516.273438 " clip-rule="nonzero"/></clipPath><clipPath id="60f074b318"><path d="M 304.5 519.375 C 304.273438 522.601562 303 524.25 302.023438 524.851562 C 301.351562 525.226562 300.675781 525.375 299.925781 525.226562 C 298.875 525 297 523.875 296.324219 523.050781 C 295.875 522.449219 295.648438 521.773438 295.726562 521.023438 C 295.800781 519.898438 296.699219 517.949219 297.449219 517.199219 C 297.976562 516.601562 298.648438 516.375 299.398438 516.300781 C 300.449219 516.226562 303.375 517.574219 303.375 517.574219 " clip-rule="nonzero"/></clipPath></defs><g clip-path="url(#47c4c4d7cd)"><path fill="#f9993d" d="M 242.8125 618.628906 L 348.484375 618.628906 L 348.484375 589.207031 L 242.601562 589.207031 Z M 348.484375 446.515625 L 348.484375 342.167969 L 255.15625 342.167969 L 243.507812 446.515625 L 158.40625 446.515625 L 237.597656 271.515625 L 130.429688 271.515625 L 46.550781 454.960938 L 46.550781 523.449219 L 242.125 523.449219 L 242.371094 558.839844 L 348.484375 558.839844 L 348.484375 523.449219 L 400.632812 523.449219 L 400.632812 446.515625 Z M 178.316406 166.789062 L 148.613281 231.734375 L 255.621094 231.734375 L 270.261719 199.382812 L 178.316406 166.789062 " fill-opacity="1" fill-rule="nonzero"/></g><path fill="#f9993d" d="M 789.011719 307.089844 L 681.117188 307.089844 C 683.730469 320.722656 685.511719 337.484375 686.519531 357.335938 L 796.890625 357.335938 C 795.355469 339.347656 792.71875 322.609375 789.011719 307.089844 Z M 753.683594 228.089844 C 723.695312 188.554688 680.359375 168.765625 623.65625 168.765625 C 566.90625 168.765625 523.578125 188.554688 493.617188 228.089844 C 469.503906 259.921875 455.089844 302.980469 450.375 357.335938 L 560.785156 357.335938 C 561.824219 337.371094 563.679688 320.570312 566.34375 306.964844 C 570.675781 284.804688 577.433594 268.941406 586.601562 259.394531 C 595.742188 249.820312 608.074219 245.039062 623.65625 245.039062 C 639.203125 245.039062 651.535156 249.601562 660.703125 258.734375 C 664.097656 262.09375 667.117188 266.363281 669.816406 271.515625 L 777.902344 271.515625 C 771.367188 255.246094 763.292969 240.777344 753.683594 228.089844 Z M 687.460938 399.226562 C 687.460938 438.636719 685.300781 469.5 680.933594 491.828125 C 676.59375 514.214844 669.84375 530.078125 660.703125 539.402344 C 651.535156 548.761719 639.203125 553.4375 623.65625 553.4375 C 608.074219 553.4375 595.742188 548.640625 586.601562 539.09375 C 577.433594 529.539062 570.675781 513.558594 566.34375 491.167969 C 561.984375 468.835938 559.8125 438.195312 559.8125 399.226562 L 448.648438 399.226562 C 448.683594 472.957031 463.664062 529.792969 493.617188 569.734375 C 523.578125 609.710938 566.90625 629.71875 623.65625 629.71875 C 680.359375 629.71875 723.695312 609.710938 753.683594 569.734375 C 783.613281 529.792969 798.585938 472.957031 798.628906 399.226562 L 687.460938 399.226562 " fill-opacity="1" fill-rule="nonzero"/><g clip-path="url(#636ee75f3b)"><path fill="#f9993d" d="M 982.511719 166.789062 L 952.832031 231.734375 L 1059.851562 231.734375 L 1074.480469 199.382812 Z M 1046.953125 607.515625 L 1047.035156 618.628906 L 1152.703125 618.628906 L 1152.703125 607.515625 Z M 1152.703125 446.515625 L 1152.703125 422.246094 L 1050.429688 422.246094 L 1047.695312 446.515625 L 962.632812 446.515625 L 1041.828125 271.515625 L 934.648438 271.515625 L 850.78125 454.960938 L 850.78125 523.449219 L 1046.34375 523.449219 L 1046.699219 570.863281 L 1152.703125 570.863281 L 1152.703125 523.449219 L 1204.863281 523.449219 L 1204.863281 446.515625 Z M 1059.386719 342.167969 L 1053.015625 399.226562 L 1152.703125 399.226562 L 1152.703125 342.167969 L 1059.386719 342.167969 " fill-opacity="1" fill-rule="nonzero"/></g><g clip-path="url(#c0db195c06)"><path fill="#f9993d" d="M 129.140625 751.988281 C 129.296875 768.476562 130.90625 785.972656 134.070312 804.5 L 87.910156 689.40625 L 41.972656 689.40625 L 41.972656 837.65625 L 74.84375 837.65625 L 74.84375 783.324219 C 74.84375 771.492188 74.4375 761.257812 73.59375 752.621094 C 72.78125 743.984375 71.617188 734.03125 70.105469 722.792969 L 115.136719 837.65625 L 162.207031 837.65625 L 162.207031 751.988281 Z M 129.113281 689.40625 L 129.113281 725.800781 L 162.207031 725.800781 L 162.207031 689.40625 L 129.113281 689.40625 " fill-opacity="1" fill-rule="nonzero"/></g><g clip-path="url(#9ccd12da2b)"><path fill="#f9993d" d="M 308.664062 706.082031 C 296.296875 692.546875 278.984375 685.761719 256.761719 685.761719 C 242.222656 685.761719 229.65625 688.867188 219.175781 695.0625 C 208.652344 701.28125 200.578125 710.226562 194.957031 721.910156 C 194.332031 723.199219 193.765625 724.484375 193.226562 725.800781 L 231.828125 725.800781 C 232.199219 725.085938 232.605469 724.390625 233.019531 723.726562 C 238.199219 715.53125 246.113281 711.445312 256.761719 711.445312 C 267.4375 711.445312 275.378906 715.503906 280.625 723.640625 C 285.902344 731.773438 288.503906 745.023438 288.503906 763.421875 C 288.503906 781.816406 285.929688 795.136719 280.75 803.335938 C 275.570312 811.53125 267.59375 815.605469 256.761719 815.605469 C 246.269531 815.605469 238.382812 811.496094 233.117188 803.203125 C 227.867188 794.953125 225.265625 781.667969 225.265625 763.421875 C 225.265625 759.371094 225.386719 755.542969 225.667969 751.988281 L 187.042969 751.988281 C 186.699219 755.664062 186.515625 759.46875 186.515625 763.421875 C 186.515625 779.847656 189.335938 793.851562 194.957031 805.46875 C 200.578125 817.089844 208.652344 825.972656 219.175781 832.097656 C 229.65625 838.21875 242.222656 841.300781 256.761719 841.300781 C 271.328125 841.300781 283.890625 838.195312 294.46875 831.972656 C 305.058594 825.78125 313.15625 816.832031 318.804688 805.160156 C 324.421875 793.445312 327.253906 779.53125 327.253906 763.421875 C 327.253906 738.742188 321.035156 719.652344 308.664062 706.082031 " fill-opacity="1" fill-rule="nonzero"/></g><path fill="#f9993d" d="M 374.984375 822.082031 L 374.984375 837.65625 L 411.917969 837.65625 L 411.917969 822.082031 Z M 334.667969 689.40625 L 334.667969 716.351562 L 374.984375 716.351562 L 374.984375 801.164062 L 411.917969 801.164062 L 411.917969 716.351562 L 450.410156 716.351562 L 454.019531 689.40625 L 334.667969 689.40625 " fill-opacity="1" fill-rule="nonzero"/><path fill="#f9993d" d="M 527.1875 822.082031 L 527.1875 837.65625 L 564.121094 837.65625 L 564.121094 822.082031 Z M 616.332031 714.4375 L 620.171875 689.40625 L 527.1875 689.40625 L 527.1875 801.164062 L 564.121094 801.164062 L 564.121094 778.84375 L 609.582031 778.84375 L 609.582031 753.8125 L 564.121094 753.8125 L 564.121094 714.4375 L 616.332031 714.4375 " fill-opacity="1" fill-rule="nonzero"/><g clip-path="url(#2223dadfdb)"><path fill="#f9993d" d="M 733.746094 773.9375 C 732.933594 787.003906 730.480469 796.804688 726.335938 803.335938 C 721.15625 811.53125 713.144531 815.605469 702.347656 815.605469 C 691.855469 815.605469 683.976562 811.496094 678.699219 803.203125 C 673.460938 794.953125 670.8125 781.667969 670.8125 763.421875 C 670.8125 745.175781 673.414062 731.933594 678.613281 723.726562 C 683.792969 715.53125 691.695312 711.445312 702.347656 711.445312 C 713.019531 711.445312 720.96875 715.503906 726.210938 723.640625 C 730.324219 729.984375 732.800781 739.394531 733.683594 751.988281 L 772.335938 751.988281 C 770.703125 732.769531 764.644531 717.480469 754.25 706.082031 C 741.878906 692.546875 724.578125 685.761719 702.347656 685.761719 C 687.804688 685.761719 675.242188 688.867188 664.753906 695.0625 C 654.242188 701.28125 646.171875 710.226562 640.542969 721.910156 C 634.921875 733.617188 632.097656 747.433594 632.097656 763.421875 C 632.097656 779.847656 634.921875 793.851562 640.542969 805.46875 C 646.171875 817.089844 654.242188 825.972656 664.753906 832.097656 C 675.242188 838.21875 687.804688 841.300781 702.347656 841.300781 C 716.921875 841.300781 729.476562 838.195312 740.0625 831.972656 C 750.640625 825.78125 758.765625 816.832031 764.394531 805.160156 C 768.753906 796.082031 771.429688 785.652344 772.398438 773.9375 L 733.746094 773.9375 " fill-opacity="1" fill-rule="nonzero"/></g><g clip-path="url(#71e4e4cd61)"><path fill="#f9993d" d="M 880.019531 773.9375 L 880.019531 786.941406 C 880.019531 796.523438 878.09375 803.617188 874.265625 808.230469 C 870.4375 812.882812 864.3125 815.203125 855.898438 815.203125 C 847.640625 815.203125 841.613281 812.882812 837.785156 808.230469 C 833.945312 803.617188 832.03125 796.523438 832.03125 786.941406 L 832.03125 773.9375 L 795.097656 773.9375 L 795.097656 788.449219 C 795.097656 804.550781 800.289062 817.398438 810.652344 826.945312 C 821.011719 836.515625 836.089844 841.300781 855.898438 841.300781 C 869.113281 841.300781 880.300781 839.003906 889.46875 834.453125 C 898.609375 829.898438 905.480469 823.617188 910.070312 815.605469 C 914.621094 807.632812 916.914062 798.589844 916.914062 788.449219 L 916.914062 773.9375 Z M 880.019531 689.40625 L 880.019531 751.988281 L 916.914062 751.988281 L 916.914062 689.40625 Z M 795.097656 689.40625 L 795.097656 751.988281 L 832.03125 751.988281 L 832.03125 689.40625 L 795.097656 689.40625 " fill-opacity="1" fill-rule="nonzero"/></g><path fill="#f9993d" d="M 1033.570312 689.40625 L 1033.570312 749.285156 C 1033.570312 766.5625 1035.203125 784.957031 1038.5 804.5 L 992.339844 689.40625 L 946.425781 689.40625 L 946.425781 837.65625 L 979.308594 837.65625 L 979.308594 783.324219 C 979.308594 771.492188 978.867188 761.257812 978.046875 752.621094 C 977.238281 743.984375 976.070312 734.03125 974.5625 722.792969 L 1015.128906 826.28125 L 1066.664062 826.28125 L 1066.664062 689.40625 L 1033.570312 689.40625 " fill-opacity="1" fill-rule="nonzero"/><path fill="#f9993d" d="M 1184.421875 763.554688 C 1184.332031 781.667969 1181.15625 794.28125 1174.972656 801.386719 C 1168.664062 808.609375 1159.425781 812.183594 1147.277344 812.183594 L 1135.085938 812.183594 L 1135.085938 714.878906 L 1146.800781 714.878906 C 1154.777344 714.878906 1161.429688 716.191406 1166.835938 718.832031 C 1172.238281 721.476562 1176.542969 726.277344 1179.683594 733.246094 C 1180.652344 735.382812 1181.472656 737.765625 1182.128906 740.4375 L 1220.753906 740.4375 C 1217.699219 724.300781 1210.953125 712.523438 1200.496094 705.136719 C 1185.710938 694.65625 1166.078125 689.40625 1141.621094 689.40625 L 1098.195312 689.40625 L 1098.195312 826.28125 L 1192.960938 826.28125 C 1195.820312 824.652344 1198.492188 822.832031 1201.070312 820.855469 C 1215.355469 809.765625 1222.578125 790.648438 1222.695312 763.554688 L 1184.421875 763.554688 " fill-opacity="1" fill-rule="nonzero"/><g clip-path="url(#39cf6bc519)"><path fill="#f9993d" d="M 379.882812 523.433594 L 379.882812 618.621094 L 274.203125 618.621094 L 273.515625 523.433594 L 77.949219 523.433594 L 77.949219 454.976562 L 209.699219 166.800781 L 301.652344 199.398438 L 189.804688 446.5 L 274.890625 446.5 L 286.554688 342.1875 L 379.882812 342.1875 L 379.882812 446.5 L 432.035156 446.5 L 432.035156 523.433594 L 379.882812 523.433594 " fill-opacity="1" fill-rule="nonzero"/></g><g clip-path="url(#1ac9f029ea)"><path fill="#f9993d" d="M 617.992188 259.386719 C 608.832031 268.949219 602.09375 284.8125 597.742188 306.976562 C 593.394531 329.148438 591.222656 359.789062 591.222656 398.910156 C 591.222656 438.027344 593.394531 468.785156 597.742188 491.160156 C 602.09375 513.550781 608.832031 529.53125 617.992188 539.085938 C 627.132812 548.648438 639.484375 553.421875 655.039062 553.421875 C 670.582031 553.421875 682.945312 548.761719 692.101562 539.410156 C 701.242188 530.066406 707.992188 514.203125 712.34375 491.8125 C 716.683594 469.429688 718.863281 438.460938 718.863281 398.910156 C 718.863281 359.355469 716.683594 328.386719 712.34375 305.996094 C 707.992188 283.621094 701.242188 267.863281 692.101562 258.734375 C 682.945312 249.601562 670.582031 245.039062 655.039062 245.039062 C 639.484375 245.039062 627.132812 249.832031 617.992188 259.386719 Z M 785.085938 228.089844 C 815.039062 267.644531 830.019531 324.578125 830.019531 398.910156 C 830.019531 472.808594 815.039062 529.730469 785.085938 569.726562 C 755.105469 609.71875 711.757812 629.703125 655.039062 629.703125 C 598.316406 629.703125 554.960938 609.71875 525.007812 569.726562 C 495.039062 529.730469 480.066406 472.808594 480.066406 398.910156 C 480.066406 324.578125 495.039062 267.644531 525.007812 228.089844 C 554.960938 188.539062 598.316406 168.757812 655.039062 168.757812 C 711.757812 168.757812 755.105469 188.539062 785.085938 228.089844 " fill-opacity="1" fill-rule="nonzero"/></g><g clip-path="url(#120a21cff4)"><path fill="#f9993d" d="M 1184.105469 523.433594 L 1184.105469 618.621094 L 1078.425781 618.621094 L 1077.746094 523.433594 L 882.171875 523.433594 L 882.171875 454.976562 L 1013.929688 166.800781 L 1105.882812 199.398438 L 994.027344 446.5 L 1079.113281 446.5 L 1090.777344 342.1875 L 1184.105469 342.1875 L 1184.105469 446.5 L 1236.253906 446.5 L 1236.253906 523.433594 L 1184.105469 523.433594 " fill-opacity="1" fill-rule="nonzero"/></g><g clip-path="url(#58dfdbcc29)"><path fill="#f9993d" d="M 146.546875 837.65625 L 101.515625 722.773438 C 103.015625 734.039062 104.179688 743.992188 105.007812 752.621094 C 105.832031 761.25 106.246094 771.476562 106.246094 783.316406 L 106.246094 837.65625 L 73.371094 837.65625 L 73.371094 689.40625 L 119.300781 689.40625 L 165.464844 804.5 C 162.15625 784.957031 160.503906 766.5625 160.503906 749.304688 L 160.503906 689.40625 L 193.609375 689.40625 L 193.609375 837.65625 L 146.546875 837.65625 " fill-opacity="1" fill-rule="nonzero"/></g><g clip-path="url(#9fa63e931e)"><path fill="#f9993d" d="M 264.417969 723.734375 C 259.242188 731.941406 256.65625 745.167969 256.65625 763.421875 C 256.65625 781.675781 259.277344 794.945312 264.523438 803.210938 C 269.785156 811.488281 277.664062 815.625 288.171875 815.625 C 298.976562 815.625 306.972656 811.523438 312.152344 803.316406 C 317.328125 795.121094 319.921875 781.816406 319.921875 763.421875 C 319.921875 745.023438 317.292969 731.765625 312.035156 723.628906 C 306.785156 715.503906 298.828125 711.4375 288.171875 711.4375 C 277.511719 711.4375 269.589844 715.539062 264.417969 723.734375 Z M 340.066406 706.089844 C 352.453125 719.640625 358.644531 738.753906 358.644531 763.421875 C 358.644531 779.539062 355.832031 793.445312 350.203125 805.136719 C 344.574219 816.832031 336.464844 825.78125 325.886719 831.984375 C 315.300781 838.195312 302.726562 841.289062 288.171875 841.289062 C 273.613281 841.289062 261.074219 838.21875 250.566406 832.097656 C 240.058594 825.964844 231.996094 817.089844 226.367188 805.460938 C 220.738281 793.832031 217.921875 779.832031 217.921875 763.421875 C 217.921875 747.453125 220.738281 733.617188 226.367188 721.917969 C 231.996094 710.226562 240.058594 701.273438 250.566406 695.070312 C 261.074219 688.867188 273.613281 685.773438 288.171875 685.773438 C 310.386719 685.773438 327.6875 692.539062 340.066406 706.089844 " fill-opacity="1" fill-rule="nonzero"/></g><g clip-path="url(#435c75dae6)"><path fill="#f9993d" d="M 443.300781 716.359375 L 443.300781 837.65625 L 406.378906 837.65625 L 406.378906 716.359375 L 366.074219 716.359375 L 366.074219 689.40625 L 485.410156 689.40625 L 481.804688 716.359375 L 443.300781 716.359375 " fill-opacity="1" fill-rule="nonzero"/></g><g clip-path="url(#1acfb33bbf)"><path fill="#f9993d" d="M 595.511719 714.4375 L 595.511719 753.796875 L 640.992188 753.796875 L 640.992188 778.824219 L 595.511719 778.824219 L 595.511719 837.65625 L 558.578125 837.65625 L 558.578125 689.40625 L 651.570312 689.40625 L 647.75 714.4375 L 595.511719 714.4375 " fill-opacity="1" fill-rule="nonzero"/></g><g clip-path="url(#3abc324b2b)"><path fill="#f9993d" d="M 709.996094 723.734375 C 704.816406 731.941406 702.230469 745.167969 702.230469 763.421875 C 702.230469 781.675781 704.851562 794.945312 710.109375 803.210938 C 715.367188 811.488281 723.246094 815.625 733.753906 815.625 C 744.5625 815.625 752.554688 811.523438 757.734375 803.316406 C 762.914062 795.121094 765.507812 781.816406 765.507812 763.421875 C 765.507812 745.023438 762.878906 731.765625 757.621094 723.628906 C 752.371094 715.503906 744.414062 711.4375 733.753906 711.4375 C 723.097656 711.4375 715.183594 715.539062 709.996094 723.734375 Z M 785.648438 706.089844 C 798.039062 719.640625 804.230469 738.753906 804.230469 763.421875 C 804.230469 779.539062 801.417969 793.445312 795.789062 805.136719 C 790.167969 816.832031 782.050781 825.78125 771.464844 831.984375 C 760.882812 838.195312 748.3125 841.289062 733.753906 841.289062 C 719.195312 841.289062 706.660156 838.21875 696.152344 832.097656 C 685.644531 825.964844 677.582031 817.089844 671.953125 805.460938 C 666.324219 793.832031 663.507812 779.832031 663.507812 763.421875 C 663.507812 747.453125 666.324219 733.617188 671.953125 721.917969 C 677.582031 710.226562 685.644531 701.273438 696.152344 695.070312 C 706.660156 688.867188 719.195312 685.773438 733.753906 685.773438 C 755.96875 685.773438 773.273438 692.539062 785.648438 706.089844 " fill-opacity="1" fill-rule="nonzero"/></g><g clip-path="url(#0a1cf79d32)"><path fill="#f9993d" d="M 941.460938 815.625 C 936.882812 823.609375 930.015625 829.890625 920.859375 834.453125 C 911.699219 839.003906 900.523438 841.289062 887.316406 841.289062 C 867.5 841.289062 852.410156 836.515625 842.054688 826.960938 C 831.695312 817.40625 826.515625 804.570312 826.515625 788.449219 L 826.515625 689.40625 L 863.449219 689.40625 L 863.449219 786.949219 C 863.449219 796.507812 865.355469 803.601562 869.183594 808.242188 C 873.011719 812.882812 879.046875 815.191406 887.316406 815.191406 C 895.714844 815.191406 901.835938 812.882812 905.667969 808.242188 C 909.488281 803.601562 911.402344 796.507812 911.402344 786.949219 L 911.402344 689.40625 L 948.332031 689.40625 L 948.332031 788.449219 C 948.332031 798.578125 946.039062 807.632812 941.460938 815.625 " fill-opacity="1" fill-rule="nonzero"/></g><g clip-path="url(#fed49529ce)"><path fill="#f9993d" d="M 1051.003906 837.65625 L 1005.964844 722.773438 C 1007.464844 734.039062 1008.628906 743.992188 1009.457031 752.621094 C 1010.285156 761.25 1010.691406 771.476562 1010.691406 783.316406 L 1010.691406 837.65625 L 977.828125 837.65625 L 977.828125 689.40625 L 1023.75 689.40625 L 1069.910156 804.5 C 1066.609375 784.957031 1064.960938 766.5625 1064.960938 749.304688 L 1064.960938 689.40625 L 1098.0625 689.40625 L 1098.0625 837.65625 L 1051.003906 837.65625 " fill-opacity="1" fill-rule="nonzero"/></g><g clip-path="url(#0bb92e4f29)"><path fill="#f9993d" d="M 1166.503906 812.203125 L 1178.660156 812.203125 C 1190.816406 812.203125 1200.046875 808.59375 1206.355469 801.394531 C 1212.664062 794.195312 1215.8125 781.320312 1215.8125 762.785156 C 1215.8125 750.089844 1214.234375 740.253906 1211.082031 733.253906 C 1207.933594 726.277344 1203.65625 721.460938 1198.246094 718.820312 C 1192.847656 716.183594 1186.167969 714.859375 1178.210938 714.859375 L 1166.503906 714.859375 Z M 1231.914062 705.128906 C 1246.691406 715.601562 1254.09375 734.828125 1254.09375 762.785156 C 1254.09375 790.3125 1246.886719 809.667969 1232.480469 820.867188 C 1218.0625 832.054688 1199.375 837.65625 1176.410156 837.65625 L 1129.578125 837.65625 L 1129.578125 689.40625 L 1173.03125 689.40625 C 1197.496094 689.40625 1217.128906 694.648438 1231.914062 705.128906 " fill-opacity="1" fill-rule="nonzero"/></g><g clip-path="url(#80f7de7c9a)"><g clip-path="url(#60f074b318)"><path fill="#ffa629" d="M 292.726562 513.300781 L 307.648438 513.300781 L 307.648438 528.226562 L 292.726562 528.226562 Z M 292.726562 513.300781 " fill-opacity="1" fill-rule="nonzero"/></g></g></svg>