<svg xmlns="http://www.w3.org/2000/svg" xmlns:xlink="http://www.w3.org/1999/xlink" width="500" zoomAndPan="magnify" viewBox="0 0 375 374.999991" height="500" preserveAspectRatio="xMidYMid meet" version="1.0"><defs><clipPath id="63ec3801fe"><path d="M 3 28 L 374 28 L 374 348.34375 L 3 348.34375 Z M 3 28 " clip-rule="nonzero"/></clipPath></defs><g clip-path="url(#63ec3801fe)"><path fill="#f99029" d="M 204.238281 120.042969 L 225.605469 120.042969 C 225.953125 120.042969 226.296875 120.03125 226.644531 120.007812 C 226.992188 119.984375 227.335938 119.953125 227.679688 119.90625 C 228.023438 119.859375 228.367188 119.804688 228.707031 119.738281 C 229.046875 119.667969 229.386719 119.589844 229.71875 119.5 C 230.054688 119.410156 230.386719 119.308594 230.714844 119.199219 C 231.046875 119.085938 231.371094 118.964844 231.691406 118.832031 C 232.011719 118.699219 232.328125 118.554688 232.640625 118.402344 C 232.949219 118.25 233.257812 118.085938 233.558594 117.910156 C 233.859375 117.738281 234.152344 117.554688 234.441406 117.363281 C 234.730469 117.167969 235.011719 116.96875 235.285156 116.757812 C 235.5625 116.542969 235.832031 116.324219 236.089844 116.097656 C 236.351562 115.867188 236.605469 115.628906 236.851562 115.382812 C 237.097656 115.140625 237.332031 114.886719 237.5625 114.625 C 237.792969 114.363281 238.011719 114.097656 238.222656 113.820312 C 238.433594 113.546875 238.636719 113.261719 238.828125 112.972656 C 239.023438 112.6875 239.207031 112.390625 239.378906 112.089844 C 239.550781 111.789062 239.714844 111.484375 239.871094 111.171875 C 240.023438 110.863281 240.167969 110.546875 240.300781 110.226562 C 240.433594 109.902344 240.554688 109.578125 240.667969 109.25 C 240.777344 108.921875 240.878906 108.589844 240.96875 108.253906 C 241.058594 107.917969 241.136719 107.582031 241.207031 107.242188 C 241.273438 106.902344 241.328125 106.558594 241.375 106.214844 C 241.421875 105.871094 241.453125 105.523438 241.476562 105.179688 C 241.5 104.832031 241.511719 104.484375 241.511719 104.136719 C 241.511719 103.792969 241.5 103.445312 241.476562 103.097656 C 241.453125 102.75 241.421875 102.40625 241.375 102.0625 C 241.332031 101.71875 241.273438 101.375 241.207031 101.035156 C 241.136719 100.695312 241.058594 100.355469 240.96875 100.023438 C 240.878906 99.6875 240.78125 99.355469 240.667969 99.027344 C 240.558594 98.695312 240.433594 98.371094 240.300781 98.050781 C 240.167969 97.730469 240.027344 97.414062 239.871094 97.101562 C 239.71875 96.792969 239.554688 96.484375 239.382812 96.183594 L 205.347656 37.199219 C 204.550781 35.820312 203.589844 34.566406 202.460938 33.4375 C 201.335938 32.308594 200.082031 31.347656 198.703125 30.550781 C 197.324219 29.753906 195.863281 29.148438 194.324219 28.734375 C 192.785156 28.324219 191.21875 28.117188 189.625 28.117188 C 188.03125 28.117188 186.464844 28.324219 184.925781 28.734375 C 183.382812 29.148438 181.925781 29.75 180.542969 30.546875 C 179.164062 31.34375 177.910156 32.308594 176.785156 33.433594 C 175.65625 34.5625 174.695312 35.8125 173.898438 37.195312 L 5.355469 329.105469 C 4.796875 330.078125 4.371094 331.105469 4.078125 332.1875 C 3.789062 333.269531 3.644531 334.371094 3.644531 335.492188 C 3.644531 336.613281 3.789062 337.71875 4.078125 338.800781 C 4.371094 339.882812 4.796875 340.910156 5.355469 341.882812 C 5.917969 342.851562 6.59375 343.734375 7.386719 344.527344 C 8.179688 345.320312 9.0625 345.996094 10.03125 346.558594 C 11.003906 347.117188 12.03125 347.542969 13.113281 347.832031 C 14.195312 348.125 15.296875 348.269531 16.417969 348.269531 L 33.367188 348.269531 C 35.222656 348.269531 37.070312 348.148438 38.914062 347.90625 C 40.753906 347.664062 42.570312 347.300781 44.363281 346.820312 C 46.15625 346.339844 47.910156 345.746094 49.625 345.035156 C 51.339844 344.324219 53 343.503906 54.609375 342.578125 C 56.214844 341.648438 57.753906 340.621094 59.226562 339.488281 C 60.699219 338.359375 62.09375 337.136719 63.40625 335.824219 C 64.71875 334.511719 65.9375 333.121094 67.070312 331.648438 C 68.199219 330.175781 69.226562 328.632812 70.15625 327.027344 L 182.320312 132.695312 C 182.875 131.738281 183.488281 130.820312 184.160156 129.945312 C 184.835938 129.066406 185.5625 128.238281 186.34375 127.457031 C 187.125 126.671875 187.953125 125.945312 188.832031 125.273438 C 189.710938 124.597656 190.625 123.984375 191.585938 123.433594 C 192.542969 122.878906 193.53125 122.390625 194.554688 121.96875 C 195.574219 121.546875 196.621094 121.191406 197.6875 120.90625 C 198.753906 120.617188 199.839844 120.402344 200.933594 120.257812 C 202.03125 120.113281 203.132812 120.042969 204.238281 120.042969 Z M 264.6875 293.261719 L 164.769531 293.261719 C 163.015625 293.261719 161.289062 293.488281 159.589844 293.945312 C 157.894531 294.398438 156.285156 295.066406 154.761719 295.941406 C 153.242188 296.820312 151.859375 297.878906 150.617188 299.121094 C 149.375 300.363281 148.3125 301.746094 147.433594 303.265625 L 130.472656 332.601562 C 130.015625 333.398438 129.664062 334.234375 129.429688 335.121094 C 129.191406 336.007812 129.070312 336.90625 129.070312 337.824219 C 129.070312 338.742188 129.1875 339.640625 129.425781 340.527344 C 129.664062 341.414062 130.011719 342.253906 130.46875 343.046875 C 130.925781 343.839844 131.480469 344.5625 132.128906 345.210938 C 132.777344 345.859375 133.496094 346.410156 134.289062 346.871094 C 135.082031 347.328125 135.921875 347.675781 136.808594 347.914062 C 137.695312 348.148438 138.59375 348.269531 139.511719 348.269531 L 357.261719 348.269531 C 358.664062 348.269531 360.042969 348.085938 361.398438 347.722656 C 362.753906 347.359375 364.039062 346.828125 365.257812 346.125 C 366.472656 345.425781 367.574219 344.578125 368.566406 343.585938 C 369.558594 342.59375 370.40625 341.488281 371.109375 340.273438 C 371.808594 339.058594 372.34375 337.773438 372.707031 336.417969 C 373.070312 335.0625 373.25 333.679688 373.25 332.277344 C 373.25 330.875 373.066406 329.496094 372.703125 328.140625 C 372.339844 326.785156 371.808594 325.5 371.105469 324.285156 L 327.609375 248.980469 C 326.976562 247.886719 326.417969 246.753906 325.933594 245.585938 C 325.449219 244.417969 325.042969 243.222656 324.714844 242 C 324.390625 240.777344 324.144531 239.539062 323.976562 238.285156 C 323.8125 237.03125 323.730469 235.773438 323.730469 234.507812 C 323.730469 233.242188 323.8125 231.984375 323.980469 230.730469 C 324.144531 229.476562 324.390625 228.238281 324.71875 227.019531 C 325.046875 225.796875 325.453125 224.601562 325.9375 223.433594 C 326.421875 222.265625 326.980469 221.132812 327.613281 220.039062 L 340.300781 198.097656 C 340.84375 197.15625 341.257812 196.160156 341.539062 195.109375 C 341.820312 194.058594 341.964844 192.988281 341.964844 191.898438 C 341.964844 190.8125 341.824219 189.742188 341.542969 188.691406 C 341.261719 187.640625 340.847656 186.644531 340.304688 185.699219 C 339.761719 184.757812 339.105469 183.902344 338.335938 183.132812 C 337.566406 182.363281 336.710938 181.707031 335.769531 181.164062 C 334.828125 180.617188 333.832031 180.207031 332.78125 179.925781 C 331.726562 179.640625 330.660156 179.5 329.570312 179.5 L 237.652344 179.5 C 236.230469 179.5 234.8125 179.59375 233.398438 179.78125 C 231.988281 179.964844 230.597656 180.242188 229.222656 180.609375 C 227.847656 180.980469 226.5 181.433594 225.1875 181.980469 C 223.871094 182.523438 222.597656 183.152344 221.363281 183.863281 C 220.128906 184.574219 218.949219 185.363281 217.820312 186.230469 C 216.691406 187.097656 215.621094 188.03125 214.613281 189.039062 C 213.609375 190.042969 212.671875 191.113281 211.804688 192.242188 C 210.9375 193.371094 210.148438 194.550781 209.433594 195.78125 L 195.921875 219.164062 C 195.472656 219.941406 195.128906 220.761719 194.898438 221.628906 C 194.664062 222.496094 194.546875 223.378906 194.546875 224.277344 C 194.546875 225.175781 194.664062 226.058594 194.894531 226.925781 C 195.125 227.792969 195.46875 228.613281 195.914062 229.390625 C 196.363281 230.167969 196.90625 230.875 197.542969 231.511719 C 198.175781 232.144531 198.882812 232.6875 199.660156 233.136719 C 200.4375 233.585938 201.257812 233.925781 202.125 234.160156 C 202.992188 234.390625 203.875 234.507812 204.773438 234.507812 L 299.0625 234.507812 C 299.570312 234.507812 300.078125 234.539062 300.582031 234.605469 C 301.089844 234.675781 301.589844 234.773438 302.082031 234.90625 C 302.574219 235.035156 303.054688 235.199219 303.523438 235.394531 C 303.996094 235.589844 304.453125 235.816406 304.894531 236.070312 C 305.335938 236.324219 305.757812 236.605469 306.164062 236.917969 C 306.566406 237.226562 306.949219 237.5625 307.308594 237.921875 C 307.671875 238.28125 308.007812 238.664062 308.316406 239.070312 C 308.628906 239.472656 308.910156 239.894531 309.164062 240.335938 C 309.421875 240.777344 309.644531 241.234375 309.839844 241.707031 C 310.035156 242.175781 310.199219 242.65625 310.332031 243.148438 C 310.464844 243.640625 310.5625 244.140625 310.632812 244.644531 C 310.699219 245.152344 310.730469 245.660156 310.730469 246.167969 C 310.734375 246.679688 310.699219 247.1875 310.632812 247.691406 C 310.566406 248.195312 310.46875 248.695312 310.335938 249.1875 C 310.207031 249.679688 310.042969 250.164062 309.847656 250.632812 C 309.652344 251.105469 309.429688 251.5625 309.175781 252.003906 L 295.761719 275.300781 C 294.976562 276.660156 294.109375 277.960938 293.15625 279.207031 C 292.203125 280.453125 291.171875 281.628906 290.0625 282.738281 C 288.957031 283.847656 287.78125 284.882812 286.535156 285.835938 C 285.292969 286.792969 283.992188 287.664062 282.632812 288.449219 C 281.277344 289.234375 279.871094 289.925781 278.421875 290.527344 C 276.976562 291.128906 275.492188 291.632812 273.976562 292.039062 C 272.464844 292.445312 270.929688 292.75 269.375 292.957031 C 267.820312 293.160156 266.257812 293.261719 264.6875 293.261719 Z M 264.6875 293.261719 " fill-opacity="1" fill-rule="evenodd"/></g></svg>