<svg xmlns="http://www.w3.org/2000/svg" xmlns:xlink="http://www.w3.org/1999/xlink" width="1920" zoomAndPan="magnify" viewBox="0 0 1440 809.999993" height="1080" preserveAspectRatio="xMidYMid meet" version="1.0"><defs><clipPath id="b26b9c7954"><path d="M 0 0.75 L 405 0.75 L 405 405.75 L 0 405.75 Z M 0 0.75 " clip-rule="nonzero"/></clipPath><clipPath id="c906103c45"><path d="M 0 404.25 L 405 404.25 L 405 809.25 L 0 809.25 Z M 0 404.25 " clip-rule="nonzero"/></clipPath><clipPath id="64e96c7618"><path d="M 405 0.75 L 810 0.75 L 810 405.75 L 405 405.75 Z M 405 0.75 " clip-rule="nonzero"/></clipPath><clipPath id="f73e6247e6"><path d="M 405 404.25 L 810 404.25 L 810 809.25 L 405 809.25 Z M 405 404.25 " clip-rule="nonzero"/></clipPath><clipPath id="5abf261340"><path d="M 810 403.5 L 1215 403.5 L 1215 808.5 L 810 808.5 Z M 810 403.5 " clip-rule="nonzero"/></clipPath><clipPath id="e5d142163e"><path d="M 1215 0 L 1440 0 L 1440 404.25 L 1215 404.25 Z M 1215 0 " clip-rule="nonzero"/></clipPath><clipPath id="8fe2ea578a"><path d="M 1215 402.75 L 1440 402.75 L 1440 807.75 L 1215 807.75 Z M 1215 402.75 " clip-rule="nonzero"/></clipPath></defs><g clip-path="url(#b26b9c7954)"><path fill="#cacaca" d="M 405 405.75 L 0 405.75 L 0 0.75 L 405 0.75 Z M 1.613281 404.136719 L 403.386719 404.136719 L 403.386719 2.363281 L 1.613281 2.363281 Z M 404.191406 370.519531 L 0.808594 370.519531 L 0.808594 372.132812 L 404.191406 372.132812 Z M 404.191406 336.90625 L 0.808594 336.90625 L 0.808594 338.523438 L 404.191406 338.523438 Z M 404.191406 303.289062 L 0.808594 303.289062 L 0.808594 304.902344 L 404.191406 304.902344 Z M 404.191406 269.671875 L 0.808594 269.671875 L 0.808594 271.285156 L 404.191406 271.285156 Z M 404.191406 236.0625 L 0.808594 236.0625 L 0.808594 237.675781 L 404.191406 237.675781 Z M 404.191406 202.441406 L 0.808594 202.441406 L 0.808594 204.058594 L 404.191406 204.058594 Z M 404.191406 168.824219 L 0.808594 168.824219 L 0.808594 170.4375 L 404.191406 170.4375 Z M 404.191406 135.214844 L 0.808594 135.214844 L 0.808594 136.828125 L 404.191406 136.828125 Z M 404.191406 101.597656 L 0.808594 101.597656 L 0.808594 103.210938 L 404.191406 103.210938 Z M 404.191406 67.976562 L 0.808594 67.976562 L 0.808594 69.59375 L 404.191406 69.59375 Z M 404.191406 34.367188 L 0.808594 34.367188 L 0.808594 35.980469 L 404.191406 35.980469 Z M 371.382812 1.558594 L 369.769531 1.558594 L 369.769531 404.941406 L 371.382812 404.941406 Z M 337.773438 1.558594 L 336.15625 1.558594 L 336.15625 404.941406 L 337.773438 404.941406 Z M 304.152344 1.558594 L 302.539062 1.558594 L 302.539062 404.941406 L 304.152344 404.941406 Z M 270.535156 1.558594 L 268.921875 1.558594 L 268.921875 404.941406 L 270.535156 404.941406 Z M 236.925781 1.558594 L 235.3125 1.558594 L 235.3125 404.941406 L 236.925781 404.941406 Z M 203.308594 1.558594 L 201.691406 1.558594 L 201.691406 404.941406 L 203.308594 404.941406 Z M 169.6875 1.558594 L 168.074219 1.558594 L 168.074219 404.941406 L 169.6875 404.941406 Z M 136.078125 1.558594 L 134.464844 1.558594 L 134.464844 404.941406 L 136.078125 404.941406 Z M 102.460938 1.558594 L 100.847656 1.558594 L 100.847656 404.941406 L 102.460938 404.941406 Z M 68.84375 1.558594 L 67.226562 1.558594 L 67.226562 404.941406 L 68.84375 404.941406 Z M 35.230469 1.558594 L 33.617188 1.558594 L 33.617188 404.941406 L 35.230469 404.941406 Z M 35.230469 1.558594 " fill-opacity="1" fill-rule="nonzero"/></g><g clip-path="url(#c906103c45)"><path fill="#cacaca" d="M 405 809.25 L 0 809.25 L 0 404.25 L 405 404.25 Z M 1.613281 807.636719 L 403.386719 807.636719 L 403.386719 405.863281 L 1.613281 405.863281 Z M 404.191406 774.019531 L 0.808594 774.019531 L 0.808594 775.632812 L 404.191406 775.632812 Z M 404.191406 740.40625 L 0.808594 740.40625 L 0.808594 742.023438 L 404.191406 742.023438 Z M 404.191406 706.789062 L 0.808594 706.789062 L 0.808594 708.402344 L 404.191406 708.402344 Z M 404.191406 673.171875 L 0.808594 673.171875 L 0.808594 674.785156 L 404.191406 674.785156 Z M 404.191406 639.5625 L 0.808594 639.5625 L 0.808594 641.175781 L 404.191406 641.175781 Z M 404.191406 605.941406 L 0.808594 605.941406 L 0.808594 607.558594 L 404.191406 607.558594 Z M 404.191406 572.324219 L 0.808594 572.324219 L 0.808594 573.9375 L 404.191406 573.9375 Z M 404.191406 538.714844 L 0.808594 538.714844 L 0.808594 540.328125 L 404.191406 540.328125 Z M 404.191406 505.097656 L 0.808594 505.097656 L 0.808594 506.710938 L 404.191406 506.710938 Z M 404.191406 471.476562 L 0.808594 471.476562 L 0.808594 473.09375 L 404.191406 473.09375 Z M 404.191406 437.867188 L 0.808594 437.867188 L 0.808594 439.480469 L 404.191406 439.480469 Z M 371.382812 405.058594 L 369.769531 405.058594 L 369.769531 808.441406 L 371.382812 808.441406 Z M 337.773438 405.058594 L 336.15625 405.058594 L 336.15625 808.441406 L 337.773438 808.441406 Z M 304.152344 405.058594 L 302.539062 405.058594 L 302.539062 808.441406 L 304.152344 808.441406 Z M 270.535156 405.058594 L 268.921875 405.058594 L 268.921875 808.441406 L 270.535156 808.441406 Z M 236.925781 405.058594 L 235.3125 405.058594 L 235.3125 808.441406 L 236.925781 808.441406 Z M 203.308594 405.058594 L 201.691406 405.058594 L 201.691406 808.441406 L 203.308594 808.441406 Z M 169.6875 405.058594 L 168.074219 405.058594 L 168.074219 808.441406 L 169.6875 808.441406 Z M 136.078125 405.058594 L 134.464844 405.058594 L 134.464844 808.441406 L 136.078125 808.441406 Z M 102.460938 405.058594 L 100.847656 405.058594 L 100.847656 808.441406 L 102.460938 808.441406 Z M 68.84375 405.058594 L 67.226562 405.058594 L 67.226562 808.441406 L 68.84375 808.441406 Z M 35.230469 405.058594 L 33.617188 405.058594 L 33.617188 808.441406 L 35.230469 808.441406 Z M 35.230469 405.058594 " fill-opacity="1" fill-rule="nonzero"/></g><g clip-path="url(#64e96c7618)"><path fill="#cacaca" d="M 810 405.75 L 405 405.75 L 405 0.75 L 810 0.75 Z M 406.613281 404.136719 L 808.386719 404.136719 L 808.386719 2.363281 L 406.613281 2.363281 Z M 809.191406 370.519531 L 405.808594 370.519531 L 405.808594 372.132812 L 809.191406 372.132812 Z M 809.191406 336.90625 L 405.808594 336.90625 L 405.808594 338.523438 L 809.191406 338.523438 Z M 809.191406 303.289062 L 405.808594 303.289062 L 405.808594 304.902344 L 809.191406 304.902344 Z M 809.191406 269.671875 L 405.808594 269.671875 L 405.808594 271.285156 L 809.191406 271.285156 Z M 809.191406 236.0625 L 405.808594 236.0625 L 405.808594 237.675781 L 809.191406 237.675781 Z M 809.191406 202.441406 L 405.808594 202.441406 L 405.808594 204.058594 L 809.191406 204.058594 Z M 809.191406 168.824219 L 405.808594 168.824219 L 405.808594 170.4375 L 809.191406 170.4375 Z M 809.191406 135.214844 L 405.808594 135.214844 L 405.808594 136.828125 L 809.191406 136.828125 Z M 809.191406 101.597656 L 405.808594 101.597656 L 405.808594 103.210938 L 809.191406 103.210938 Z M 809.191406 67.976562 L 405.808594 67.976562 L 405.808594 69.59375 L 809.191406 69.59375 Z M 809.191406 34.367188 L 405.808594 34.367188 L 405.808594 35.980469 L 809.191406 35.980469 Z M 776.382812 1.558594 L 774.769531 1.558594 L 774.769531 404.941406 L 776.382812 404.941406 Z M 742.773438 1.558594 L 741.15625 1.558594 L 741.15625 404.941406 L 742.773438 404.941406 Z M 709.152344 1.558594 L 707.539062 1.558594 L 707.539062 404.941406 L 709.152344 404.941406 Z M 675.535156 1.558594 L 673.921875 1.558594 L 673.921875 404.941406 L 675.535156 404.941406 Z M 641.925781 1.558594 L 640.3125 1.558594 L 640.3125 404.941406 L 641.925781 404.941406 Z M 608.308594 1.558594 L 606.691406 1.558594 L 606.691406 404.941406 L 608.308594 404.941406 Z M 574.6875 1.558594 L 573.074219 1.558594 L 573.074219 404.941406 L 574.6875 404.941406 Z M 541.078125 1.558594 L 539.464844 1.558594 L 539.464844 404.941406 L 541.078125 404.941406 Z M 507.460938 1.558594 L 505.847656 1.558594 L 505.847656 404.941406 L 507.460938 404.941406 Z M 473.84375 1.558594 L 472.226562 1.558594 L 472.226562 404.941406 L 473.84375 404.941406 Z M 440.230469 1.558594 L 438.617188 1.558594 L 438.617188 404.941406 L 440.230469 404.941406 Z M 440.230469 1.558594 " fill-opacity="1" fill-rule="nonzero"/></g><g clip-path="url(#f73e6247e6)"><path fill="#cacaca" d="M 810 809.25 L 405 809.25 L 405 404.25 L 810 404.25 Z M 406.613281 807.636719 L 808.386719 807.636719 L 808.386719 405.863281 L 406.613281 405.863281 Z M 809.191406 774.019531 L 405.808594 774.019531 L 405.808594 775.632812 L 809.191406 775.632812 Z M 809.191406 740.40625 L 405.808594 740.40625 L 405.808594 742.023438 L 809.191406 742.023438 Z M 809.191406 706.789062 L 405.808594 706.789062 L 405.808594 708.402344 L 809.191406 708.402344 Z M 809.191406 673.171875 L 405.808594 673.171875 L 405.808594 674.785156 L 809.191406 674.785156 Z M 809.191406 639.5625 L 405.808594 639.5625 L 405.808594 641.175781 L 809.191406 641.175781 Z M 809.191406 605.941406 L 405.808594 605.941406 L 405.808594 607.558594 L 809.191406 607.558594 Z M 809.191406 572.324219 L 405.808594 572.324219 L 405.808594 573.9375 L 809.191406 573.9375 Z M 809.191406 538.714844 L 405.808594 538.714844 L 405.808594 540.328125 L 809.191406 540.328125 Z M 809.191406 505.097656 L 405.808594 505.097656 L 405.808594 506.710938 L 809.191406 506.710938 Z M 809.191406 471.476562 L 405.808594 471.476562 L 405.808594 473.09375 L 809.191406 473.09375 Z M 809.191406 437.867188 L 405.808594 437.867188 L 405.808594 439.480469 L 809.191406 439.480469 Z M 776.382812 405.058594 L 774.769531 405.058594 L 774.769531 808.441406 L 776.382812 808.441406 Z M 742.773438 405.058594 L 741.15625 405.058594 L 741.15625 808.441406 L 742.773438 808.441406 Z M 709.152344 405.058594 L 707.539062 405.058594 L 707.539062 808.441406 L 709.152344 808.441406 Z M 675.535156 405.058594 L 673.921875 405.058594 L 673.921875 808.441406 L 675.535156 808.441406 Z M 641.925781 405.058594 L 640.3125 405.058594 L 640.3125 808.441406 L 641.925781 808.441406 Z M 608.308594 405.058594 L 606.691406 405.058594 L 606.691406 808.441406 L 608.308594 808.441406 Z M 574.6875 405.058594 L 573.074219 405.058594 L 573.074219 808.441406 L 574.6875 808.441406 Z M 541.078125 405.058594 L 539.464844 405.058594 L 539.464844 808.441406 L 541.078125 808.441406 Z M 507.460938 405.058594 L 505.847656 405.058594 L 505.847656 808.441406 L 507.460938 808.441406 Z M 473.84375 405.058594 L 472.226562 405.058594 L 472.226562 808.441406 L 473.84375 808.441406 Z M 440.230469 405.058594 L 438.617188 405.058594 L 438.617188 808.441406 L 440.230469 808.441406 Z M 440.230469 405.058594 " fill-opacity="1" fill-rule="nonzero"/></g><path fill="#cacaca" d="M 1215 405 L 810 405 L 810 0 L 1215 0 Z M 811.613281 403.386719 L 1213.386719 403.386719 L 1213.386719 1.613281 L 811.613281 1.613281 Z M 1214.191406 369.769531 L 810.808594 369.769531 L 810.808594 371.382812 L 1214.191406 371.382812 Z M 1214.191406 336.15625 L 810.808594 336.15625 L 810.808594 337.773438 L 1214.191406 337.773438 Z M 1214.191406 302.539062 L 810.808594 302.539062 L 810.808594 304.152344 L 1214.191406 304.152344 Z M 1214.191406 268.921875 L 810.808594 268.921875 L 810.808594 270.535156 L 1214.191406 270.535156 Z M 1214.191406 235.3125 L 810.808594 235.3125 L 810.808594 236.925781 L 1214.191406 236.925781 Z M 1214.191406 201.691406 L 810.808594 201.691406 L 810.808594 203.308594 L 1214.191406 203.308594 Z M 1214.191406 168.074219 L 810.808594 168.074219 L 810.808594 169.6875 L 1214.191406 169.6875 Z M 1214.191406 134.464844 L 810.808594 134.464844 L 810.808594 136.078125 L 1214.191406 136.078125 Z M 1214.191406 100.847656 L 810.808594 100.847656 L 810.808594 102.460938 L 1214.191406 102.460938 Z M 1214.191406 67.226562 L 810.808594 67.226562 L 810.808594 68.84375 L 1214.191406 68.84375 Z M 1214.191406 33.617188 L 810.808594 33.617188 L 810.808594 35.230469 L 1214.191406 35.230469 Z M 1181.382812 0.808594 L 1179.769531 0.808594 L 1179.769531 404.191406 L 1181.382812 404.191406 Z M 1147.773438 0.808594 L 1146.15625 0.808594 L 1146.15625 404.191406 L 1147.773438 404.191406 Z M 1114.152344 0.808594 L 1112.539062 0.808594 L 1112.539062 404.191406 L 1114.152344 404.191406 Z M 1080.535156 0.808594 L 1078.921875 0.808594 L 1078.921875 404.191406 L 1080.535156 404.191406 Z M 1046.925781 0.808594 L 1045.3125 0.808594 L 1045.3125 404.191406 L 1046.925781 404.191406 Z M 1013.308594 0.808594 L 1011.691406 0.808594 L 1011.691406 404.191406 L 1013.308594 404.191406 Z M 979.6875 0.808594 L 978.074219 0.808594 L 978.074219 404.191406 L 979.6875 404.191406 Z M 946.078125 0.808594 L 944.464844 0.808594 L 944.464844 404.191406 L 946.078125 404.191406 Z M 912.460938 0.808594 L 910.847656 0.808594 L 910.847656 404.191406 L 912.460938 404.191406 Z M 878.84375 0.808594 L 877.226562 0.808594 L 877.226562 404.191406 L 878.84375 404.191406 Z M 845.230469 0.808594 L 843.617188 0.808594 L 843.617188 404.191406 L 845.230469 404.191406 Z M 845.230469 0.808594 " fill-opacity="1" fill-rule="nonzero"/><g clip-path="url(#5abf261340)"><path fill="#cacaca" d="M 1215 808.5 L 810 808.5 L 810 403.5 L 1215 403.5 Z M 811.613281 806.886719 L 1213.386719 806.886719 L 1213.386719 405.113281 L 811.613281 405.113281 Z M 1214.191406 773.269531 L 810.808594 773.269531 L 810.808594 774.882812 L 1214.191406 774.882812 Z M 1214.191406 739.65625 L 810.808594 739.65625 L 810.808594 741.273438 L 1214.191406 741.273438 Z M 1214.191406 706.039062 L 810.808594 706.039062 L 810.808594 707.652344 L 1214.191406 707.652344 Z M 1214.191406 672.421875 L 810.808594 672.421875 L 810.808594 674.035156 L 1214.191406 674.035156 Z M 1214.191406 638.8125 L 810.808594 638.8125 L 810.808594 640.425781 L 1214.191406 640.425781 Z M 1214.191406 605.191406 L 810.808594 605.191406 L 810.808594 606.808594 L 1214.191406 606.808594 Z M 1214.191406 571.574219 L 810.808594 571.574219 L 810.808594 573.1875 L 1214.191406 573.1875 Z M 1214.191406 537.964844 L 810.808594 537.964844 L 810.808594 539.578125 L 1214.191406 539.578125 Z M 1214.191406 504.347656 L 810.808594 504.347656 L 810.808594 505.960938 L 1214.191406 505.960938 Z M 1214.191406 470.726562 L 810.808594 470.726562 L 810.808594 472.34375 L 1214.191406 472.34375 Z M 1214.191406 437.117188 L 810.808594 437.117188 L 810.808594 438.730469 L 1214.191406 438.730469 Z M 1181.382812 404.308594 L 1179.769531 404.308594 L 1179.769531 807.691406 L 1181.382812 807.691406 Z M 1147.773438 404.308594 L 1146.15625 404.308594 L 1146.15625 807.691406 L 1147.773438 807.691406 Z M 1114.152344 404.308594 L 1112.539062 404.308594 L 1112.539062 807.691406 L 1114.152344 807.691406 Z M 1080.535156 404.308594 L 1078.921875 404.308594 L 1078.921875 807.691406 L 1080.535156 807.691406 Z M 1046.925781 404.308594 L 1045.3125 404.308594 L 1045.3125 807.691406 L 1046.925781 807.691406 Z M 1013.308594 404.308594 L 1011.691406 404.308594 L 1011.691406 807.691406 L 1013.308594 807.691406 Z M 979.6875 404.308594 L 978.074219 404.308594 L 978.074219 807.691406 L 979.6875 807.691406 Z M 946.078125 404.308594 L 944.464844 404.308594 L 944.464844 807.691406 L 946.078125 807.691406 Z M 912.460938 404.308594 L 910.847656 404.308594 L 910.847656 807.691406 L 912.460938 807.691406 Z M 878.84375 404.308594 L 877.226562 404.308594 L 877.226562 807.691406 L 878.84375 807.691406 Z M 845.230469 404.308594 L 843.617188 404.308594 L 843.617188 807.691406 L 845.230469 807.691406 Z M 845.230469 404.308594 " fill-opacity="1" fill-rule="nonzero"/></g><g clip-path="url(#e5d142163e)"><path fill="#cacaca" d="M 1620 404.25 L 1215 404.25 L 1215 -0.75 L 1620 -0.75 Z M 1216.613281 402.636719 L 1618.386719 402.636719 L 1618.386719 0.863281 L 1216.613281 0.863281 Z M 1619.191406 369.019531 L 1215.808594 369.019531 L 1215.808594 370.632812 L 1619.191406 370.632812 Z M 1619.191406 335.40625 L 1215.808594 335.40625 L 1215.808594 337.023438 L 1619.191406 337.023438 Z M 1619.191406 301.789062 L 1215.808594 301.789062 L 1215.808594 303.402344 L 1619.191406 303.402344 Z M 1619.191406 268.171875 L 1215.808594 268.171875 L 1215.808594 269.785156 L 1619.191406 269.785156 Z M 1619.191406 234.5625 L 1215.808594 234.5625 L 1215.808594 236.175781 L 1619.191406 236.175781 Z M 1619.191406 200.941406 L 1215.808594 200.941406 L 1215.808594 202.558594 L 1619.191406 202.558594 Z M 1619.191406 167.324219 L 1215.808594 167.324219 L 1215.808594 168.9375 L 1619.191406 168.9375 Z M 1619.191406 133.714844 L 1215.808594 133.714844 L 1215.808594 135.328125 L 1619.191406 135.328125 Z M 1619.191406 100.097656 L 1215.808594 100.097656 L 1215.808594 101.710938 L 1619.191406 101.710938 Z M 1619.191406 66.476562 L 1215.808594 66.476562 L 1215.808594 68.09375 L 1619.191406 68.09375 Z M 1619.191406 32.867188 L 1215.808594 32.867188 L 1215.808594 34.480469 L 1619.191406 34.480469 Z M 1586.382812 0.0585938 L 1584.769531 0.0585938 L 1584.769531 403.441406 L 1586.382812 403.441406 Z M 1552.773438 0.0585938 L 1551.15625 0.0585938 L 1551.15625 403.441406 L 1552.773438 403.441406 Z M 1519.152344 0.0585938 L 1517.539062 0.0585938 L 1517.539062 403.441406 L 1519.152344 403.441406 Z M 1485.535156 0.0585938 L 1483.921875 0.0585938 L 1483.921875 403.441406 L 1485.535156 403.441406 Z M 1451.925781 0.0585938 L 1450.3125 0.0585938 L 1450.3125 403.441406 L 1451.925781 403.441406 Z M 1418.308594 0.0585938 L 1416.691406 0.0585938 L 1416.691406 403.441406 L 1418.308594 403.441406 Z M 1384.6875 0.0585938 L 1383.074219 0.0585938 L 1383.074219 403.441406 L 1384.6875 403.441406 Z M 1351.078125 0.0585938 L 1349.464844 0.0585938 L 1349.464844 403.441406 L 1351.078125 403.441406 Z M 1317.460938 0.0585938 L 1315.847656 0.0585938 L 1315.847656 403.441406 L 1317.460938 403.441406 Z M 1283.84375 0.0585938 L 1282.226562 0.0585938 L 1282.226562 403.441406 L 1283.84375 403.441406 Z M 1250.230469 0.0585938 L 1248.617188 0.0585938 L 1248.617188 403.441406 L 1250.230469 403.441406 Z M 1250.230469 0.0585938 " fill-opacity="1" fill-rule="nonzero"/></g><g clip-path="url(#8fe2ea578a)"><path fill="#cacaca" d="M 1620 807.75 L 1215 807.75 L 1215 402.75 L 1620 402.75 Z M 1216.613281 806.136719 L 1618.386719 806.136719 L 1618.386719 404.363281 L 1216.613281 404.363281 Z M 1619.191406 772.519531 L 1215.808594 772.519531 L 1215.808594 774.132812 L 1619.191406 774.132812 Z M 1619.191406 738.90625 L 1215.808594 738.90625 L 1215.808594 740.523438 L 1619.191406 740.523438 Z M 1619.191406 705.289062 L 1215.808594 705.289062 L 1215.808594 706.902344 L 1619.191406 706.902344 Z M 1619.191406 671.671875 L 1215.808594 671.671875 L 1215.808594 673.285156 L 1619.191406 673.285156 Z M 1619.191406 638.0625 L 1215.808594 638.0625 L 1215.808594 639.675781 L 1619.191406 639.675781 Z M 1619.191406 604.441406 L 1215.808594 604.441406 L 1215.808594 606.058594 L 1619.191406 606.058594 Z M 1619.191406 570.824219 L 1215.808594 570.824219 L 1215.808594 572.4375 L 1619.191406 572.4375 Z M 1619.191406 537.214844 L 1215.808594 537.214844 L 1215.808594 538.828125 L 1619.191406 538.828125 Z M 1619.191406 503.597656 L 1215.808594 503.597656 L 1215.808594 505.210938 L 1619.191406 505.210938 Z M 1619.191406 469.976562 L 1215.808594 469.976562 L 1215.808594 471.59375 L 1619.191406 471.59375 Z M 1619.191406 436.367188 L 1215.808594 436.367188 L 1215.808594 437.980469 L 1619.191406 437.980469 Z M 1586.382812 403.558594 L 1584.769531 403.558594 L 1584.769531 806.941406 L 1586.382812 806.941406 Z M 1552.773438 403.558594 L 1551.15625 403.558594 L 1551.15625 806.941406 L 1552.773438 806.941406 Z M 1519.152344 403.558594 L 1517.539062 403.558594 L 1517.539062 806.941406 L 1519.152344 806.941406 Z M 1485.535156 403.558594 L 1483.921875 403.558594 L 1483.921875 806.941406 L 1485.535156 806.941406 Z M 1451.925781 403.558594 L 1450.3125 403.558594 L 1450.3125 806.941406 L 1451.925781 806.941406 Z M 1418.308594 403.558594 L 1416.691406 403.558594 L 1416.691406 806.941406 L 1418.308594 806.941406 Z M 1384.6875 403.558594 L 1383.074219 403.558594 L 1383.074219 806.941406 L 1384.6875 806.941406 Z M 1351.078125 403.558594 L 1349.464844 403.558594 L 1349.464844 806.941406 L 1351.078125 806.941406 Z M 1317.460938 403.558594 L 1315.847656 403.558594 L 1315.847656 806.941406 L 1317.460938 806.941406 Z M 1283.84375 403.558594 L 1282.226562 403.558594 L 1282.226562 806.941406 L 1283.84375 806.941406 Z M 1250.230469 403.558594 L 1248.617188 403.558594 L 1248.617188 806.941406 L 1250.230469 806.941406 Z M 1250.230469 403.558594 " fill-opacity="1" fill-rule="nonzero"/></g></svg>